<svg id="Capa_3" data-name="Capa 3" xmlns="http://www.w3.org/2000/svg" viewBox="0 0 1262.39 249.39"><defs><style>.cls-1{fill:#db0fab;}.cls-2{fill:#5aff5a;}.cls-3{fill:#1ae21e;}</style></defs><title>logoMesa de trabajo 1 copia</title><path class="cls-1" d="M128.39,78.55,129.68,80h1.47l.17-1.46q24.27,6.21,23.06,17.61l1.9,8.81h-2.94Q154,99.11,151,99.1h-1.47l.78,7.34-.26,1.47h-2.93q-2.94,0-2.42-4.41L143.07,105H141.6q-7.35-5.86-14.08-5.87-14.68,0-34.11,30.83l-4.66,16.15Q86.59,165.6,104.81,174l-.35,2.94h-2.93l-.17,1.46h2.93q10.45,0,30.75-26.42l.17-1.47h-1.47Q122.09,164.57,112.41,171h-1.47L129.16,152H118.89c.23-2-1.13-2.94-4.06-2.94l-1.3-1.46.18-1.47q.26-2.94,15.11-4.41l.34-2.93-1.64,1.47h-8.81L111,129.93l1.64-1.47.09-1.47,16.06,1.47,38.6-4.4.17-1.47q-7.34,0-7-2.94h1.46l1.3,1.47,1.64-1.47h1.47q15.63,4.5,15.28,7.34l-.08,1.47L180,129.93l-.18,1.47h5.88l-.35,2.93h-1.47l-23.74,2.94-.18,1.47h1.47l13.39-1.47-.35,2.94q-14.69,0-16,11.74l-7,23.49,1.38,1.47-.17,1.46-2.33,7.34.26,11.75-3.2,2.94,1.21,1.46q-6,1.9-6.56,7.34h-4.41q-2.94,0-1.55-13.21h-1.47l-1.12,10.28h-4.41l.78-7.34-.35-10.28h-2.93q-8.39,5.88-16.84,5.87h-7.34L100,191.59l.09-1.47H103l.17-1.47q-30.48,0-33-20.55a106.15,106.15,0,0,1-1.73-19,100.62,100.62,0,0,1,.7-11.83l.25-2.94Q70.7,123.11,79.94,105h1.47l-.35,2.94-5.52,10.27-.09,1.47h1.47q1.47-13.38,28.58-33.76H107l.17-1.47h-1.47l-4.57,1.47Q105.42,78.54,128.39,78.55ZM88.14,97.63l-.26,1.47L81.41,105l.17-1.47Zm9.93-10.28h1.47L88.14,97.63l.18-1.47Zm7.86,102.77-.08,1.47h7.34l.08-1.47ZM109.47,171h1.47L107.75,174h-1.47Zm7.17,14.68,12.44-5.87.34-2.93H128Zm3-95.42-.08,1.47h10.27l.09-1.47Zm33.42,30.83H159l-3.29,2.94Z"/><path class="cls-1" d="M253.17,76.13l7.08,4.92q-3.11,13-11.22,12.52L210.68,95.3l-.17,2.94,7.26.51,8.89-.86L228,99.53l1.47.09,10.36-.87,2.94.26-.09,1.47L208.61,104l-2.68,19,1.47.09,39.9-3.2,1.29,1.56-.08,1.46-2.94-.26v1.47l10.11,2.25-.09,1.47q-3.19,8.21-42.14,13.29l-14.77.52,1.38,1.47L193,161.79h-1.47l.87-13.21-1.47-.08-2.85,20.38q44-5.88,62.09-4.67l7.17,2-.09,2.93-2.94-.17,1.3,1.56-.26,4.4q-4.23,5.54-18,4.66l-.09,1.47,11.75.78-.26,2.93-68.31,10L179,194.7q-7.08-1.56-7.08-4.58v-.26l.26-4.4,4.06-15.89L174.85,168l2.93.09-.52,7.34,1.47.17q.87-7.34,3.46-7.08l-1.39-1.64,1-14.6L178.9,152l-2,7.25,1.64-1.38L180,158l-.61,8.81-1.47-.17.26-4.32-1.46-.08-.18,2.93-1.47-.08.18-2.94,4.66-24.79-1.47-.08,3.37-7.08-1.38-1.56.09-1.46,3.19-24.79,1.38,1.56,1.47.08.17-2.93-.95-7.43,2.33-13.13.26-4.4,1.47.17,1.38,1.56,1.56-1.39,1.47.18,1.38,1.46,1.55-1.38,4.41.35Zm-73.49,64.16L179,150.57l1.47.08.69-10.19Zm48.45,1.9h1.47l-.18,1.47-26.59,2.68-1.39-1.64.09-1.39,13.3-.6-.09,1.47Z"/><path class="cls-1" d="M342,76.13,349,81.05q-3.12,13-11.23,12.52L299.46,95.3l-.17,2.94,7.25.51,8.89-.86,1.39,1.64,1.46.09,10.37-.87,2.93.26-.08,1.47L297.38,104l-2.67,19,1.47.09,39.89-3.2,1.3,1.56-.09,1.46-2.93-.26v1.47l10.1,2.25-.09,1.47q-3.19,8.21-42.14,13.29l-14.77.52,1.39,1.47-7.09,18.65h-1.46l.86-13.21-1.47-.08-2.85,20.38q44-5.88,62.09-4.67l7.17,2-.09,2.93-2.93-.17,1.29,1.56-.26,4.4q-4.23,5.54-18,4.66l-.08,1.47,11.74.78-.26,2.93-68.31,10-1.47-.08q-7.08-1.56-7.08-4.58v-.26l.26-4.4L265,169.57,263.62,168l2.94.09-.52,7.34,1.47.17q.86-7.34,3.45-7.08l-1.38-1.64,1-14.6-2.93-.25-2,7.25,1.64-1.38,1.47.08-.6,8.81-1.47-.17.26-4.32-1.47-.08-.17,2.93-1.47-.08.17-2.94,4.66-24.79-1.46-.08,3.36-7.08-1.38-1.56.09-1.46,3.19-24.79,1.39,1.56,1.46.08.18-2.93-1-7.43,2.33-13.13.26-4.4,1.47.17L280,77.86l1.55-1.39,1.47.18,1.38,1.46L286,76.73l4.4.35Zm-73.49,64.16-.7,10.28,1.47.08.69-10.19Zm48.44,1.9h1.47l-.17,1.47-26.6,2.68-1.38-1.64.08-1.39,13.3-.6-.08,1.47Z"/><path class="cls-1" d="M377.61,74.4l1.47,13.21q2.94,0,4.4-8.8H385l1.47,5.87L382,108.17l16.15-11.75h1.47L382,112.57V114l33.77-25,1.47,1.47Q437,74.41,443.67,74.4h1.47l1.47,5.87L434.86,92h1.47q2.94-5.88,8.81-5.87l1.47,1.46V86.15l-1.47-1.47,1.47-1.47H451l1.47,4.4q-11.06,5.19-51.38,38.17,9.93,21.67,35.23,58.73v2.93l-1.47,10.28-1.46-1.47h-1.47l-1.47,5.87h-5.87v-2.93h-1.47v2.93h-2.94q0-5.18-32.29-54.32L385,139l-7.34,1.46q-1.91,35.32-9.24,44V186l-14.68-1.46V180.1l1.47-10.27q-4.41,0-4.41-8.81,2.42-14.69,4.84-14.68l-1.47-1.47q4.41-40.43,8.81-48.45L361.46,92l4.41-11.75V78.81l-1.47-1.47V75.87h2.93V86.15h1.47l1.47-4.41-1.47-1.47V78.81Q370.27,74.4,377.61,74.4ZM365.87,90.55l-1.47,8.81v5.87h1.47L367.33,92V90.55Zm42.57-1.47h1.47l-8.81,7.34h-1.47Zm-5.87,89.55H404l4.4,4.41H407Zm5.87,4.41q3.71,0,7.34,14.68v1.47h-1.47Zm7.34-99.83h1.47l-5.87,5.87h-1.47Zm19.08-11.74,1.47,1.46V74.4l-1.47,1.47L433.4,74.4h-1.47l-13.21,8.81h-1.47Q417.25,79.33,434.86,71.47ZM427.52,95l-5.87,4.41-1.47,1.47v1.46h1.47l5.87-4.4L429,96.42V95Z"/><path class="cls-2" d="M493.49,190.8c5.84-6.37,7.08-16.09,4.07-27.24L477,88.93c-1.94-7.25-5.66-16.8-12-20.34v-.36h42.8v.36c-4.78,4.07-6.9,12.56-4.6,21.93L513.3,130c2.48,9.73,3.71,18,4.24,32h.71a165.15,165.15,0,0,1,12.38-33.78l18.93-38.73c4.77-9.91,7.25-16.8,8.66-22.29h1.06A118,118,0,0,0,568,89.28l17.16,33.61c8.66,17.15,11.49,26.88,14,39.08h.71a215.19,215.19,0,0,1,5.48-36.08l8.67-35.37c2.47-9.73.17-17.69-4.43-21.93l.18-.36H649v.36c-6.37,3.54-10.26,13.09-12,20.51l-17.87,74.46c-2.83,12-1.23,20.17,4.07,27.24v.36H581.75v-.36c3-5,3.18-13.09-1.06-21.93l-12.92-27.59a107.27,107.27,0,0,1-8.31-27.06h-.71a127.57,127.57,0,0,1-7.78,23l-14.85,31.66c-4.07,8.84-4.25,17-.89,21.93v.36H493.49Z"/><path class="cls-2" d="M906.81,188v.36l-36.26,6.54a97.81,97.81,0,0,0-9-19.63l-27.41-46.87h8.49c15.21,0,23.7-6.19,23.7-21.93,0-12.91-8.49-21-23.7-20.87l-12.38.17v79.59c0,14,4.95,22.46,8.84,25.47v.36H796.45v-.36c4.59-3,9.55-11.67,9.55-26.17V94.06c0-14-5-22.47-9.55-25.47v-.36h50.23c28.29,0,44.74,14.33,44.74,37.32,0,18.75-9.19,30.25-24,35l16.45,26.71C890.54,178.07,898.32,185.14,906.81,188Z"/><path class="cls-3" d="M976.14,191.16H913.35v-.36c4.42-3,9.55-11.67,9.55-26.17V94.06c0-14-4.95-22.47-9.55-25.47v-.36h43.33v.36c-4.42,3-9.55,11.67-9.55,26.17v78.71h17.51c15.39,0,27.77-5.31,35.37-15.92l.36.18-4.6,34.84C989.05,191.33,984.27,191.16,976.14,191.16Z"/><path class="cls-2" d="M1011.33,190.8c4.42-3,9.55-11.67,9.55-26.17V94.76c0-13.08-5-23.17-9.55-26.17v-.36h51.29c37.14,0,61.55,22.82,61.55,61.38,0,38.73-20.7,61.55-64.38,61.55h-48.46Zm50.23-17.15c23.69,0,36.43-15.57,36.43-44,0-29.89-12-43.87-37.32-43.87h-15.56v87.91Z"/><path class="cls-1" d="M718.53,211.08A78.47,78.47,0,1,1,797,132.62,78.55,78.55,0,0,1,718.53,211.08Zm4.68-47.25a1.13,1.13,0,0,0-1.13,1.13v37.35a1.13,1.13,0,0,0,.42.89,1.17,1.17,0,0,0,.71.24l.25,0c11.94-2.72,22.89-15.49,29.3-34.17a1.16,1.16,0,0,0-.08-.91,1.14,1.14,0,0,0-.71-.56,132.85,132.85,0,0,0-28.73-3.95Zm-9.39,0a132.05,132.05,0,0,0-28.72,4,1.12,1.12,0,0,0-.72.55,1.15,1.15,0,0,0-.07.91c6.41,18.68,17.36,31.45,29.29,34.17l.25,0a1.13,1.13,0,0,0,.71-.24,1.14,1.14,0,0,0,.43-.89V165a1.14,1.14,0,0,0-1.14-1.13Zm-37.55,6.71a1,1,0,0,0-.39.07,76.3,76.3,0,0,0-12.18,5.58,1.13,1.13,0,0,0-.31,1.7,72.18,72.18,0,0,0,25.52,19.64,1.2,1.2,0,0,0,.48.11,1.13,1.13,0,0,0,.87-1.85,77.73,77.73,0,0,1-12.92-24.48,1.21,1.21,0,0,0-.58-.66A1.24,1.24,0,0,0,676.27,170.54Zm84.53,0a1.17,1.17,0,0,0-.49.11,1.14,1.14,0,0,0-.58.66,78,78,0,0,1-12.93,24.49,1.14,1.14,0,0,0,0,1.41,1.16,1.16,0,0,0,.9.44,1.12,1.12,0,0,0,.47-.11,72.18,72.18,0,0,0,25.52-19.63,1.14,1.14,0,0,0,.24-.92,1.12,1.12,0,0,0-.55-.78,75.94,75.94,0,0,0-12.17-5.6A1.07,1.07,0,0,0,760.8,170.53Zm5.94-34.37a1.13,1.13,0,0,0-1.13,1.09,125.93,125.93,0,0,1-3.34,25.18,1.12,1.12,0,0,0,.72,1.33,82.86,82.86,0,0,1,14.69,6.76,1.18,1.18,0,0,0,.57.15,1.16,1.16,0,0,0,1-.53,71.43,71.43,0,0,0,10.52-32.77,1.17,1.17,0,0,0-.31-.85,1.12,1.12,0,0,0-.83-.36Zm-118.28,0a1.13,1.13,0,0,0-1.13,1.21,71.23,71.23,0,0,0,10.51,32.76,1.14,1.14,0,0,0,1,.54,1.1,1.1,0,0,0,.57-.16,83.24,83.24,0,0,1,14.69-6.75,1.14,1.14,0,0,0,.73-1.33,125.92,125.92,0,0,1-3.35-25.18,1.13,1.13,0,0,0-1.13-1.09Zm31.23,0a1.14,1.14,0,0,0-.81.35,1.11,1.11,0,0,0-.32.83,116.62,116.62,0,0,0,3.12,22.86,1.12,1.12,0,0,0,.52.7,1.08,1.08,0,0,0,.58.16l.29,0a138.79,138.79,0,0,1,30.82-4.29,1.14,1.14,0,0,0,1.1-1.13V137.29a1.14,1.14,0,0,0-1.14-1.13Zm43.52,0a1.13,1.13,0,0,0-1.13,1.13v18.32a1.13,1.13,0,0,0,1.1,1.13A138.79,138.79,0,0,1,754,161a.92.92,0,0,0,.29,0,1.21,1.21,0,0,0,.58-.16,1.14,1.14,0,0,0,.52-.71,116.52,116.52,0,0,0,3.11-22.85,1.15,1.15,0,0,0-.31-.83,1.16,1.16,0,0,0-.82-.35Zm55-41.6a1.1,1.1,0,0,0-.57.16A83.24,83.24,0,0,1,763,101.47a1.12,1.12,0,0,0-.72,1.33A125.93,125.93,0,0,1,765.61,128a1.13,1.13,0,0,0,1.13,1.09H788.6a1.12,1.12,0,0,0,.83-.36,1.15,1.15,0,0,0,.31-.85,71.43,71.43,0,0,0-10.52-32.77A1.16,1.16,0,0,0,778.25,94.56Zm-24,9.61a.92.92,0,0,0-.29,0,138.71,138.71,0,0,1-30.82,4.28,1.13,1.13,0,0,0-1.1,1.13v18.32a1.13,1.13,0,0,0,1.13,1.13h34.16a1.16,1.16,0,0,0,.82-.35,1.15,1.15,0,0,0,.31-.83A116.52,116.52,0,0,0,755.39,105a1.14,1.14,0,0,0-.52-.71A1.21,1.21,0,0,0,754.29,104.17Zm-71.51,0a1.08,1.08,0,0,0-.58.16,1.14,1.14,0,0,0-.52.7,116.72,116.72,0,0,0-3.12,22.86,1.11,1.11,0,0,0,.32.83,1.14,1.14,0,0,0,.81.35h34.16a1.14,1.14,0,0,0,1.14-1.13V109.62a1.14,1.14,0,0,0-1.1-1.13,138.79,138.79,0,0,1-30.82-4.29Zm-24-9.61a1.14,1.14,0,0,0-1,.54,71.23,71.23,0,0,0-10.51,32.76,1.13,1.13,0,0,0,1.13,1.21h21.86a1.13,1.13,0,0,0,1.13-1.09,125.92,125.92,0,0,1,3.35-25.18,1.14,1.14,0,0,0-.73-1.33,83.62,83.62,0,0,1-14.69-6.75A1.1,1.1,0,0,0,658.81,94.56Zm64.4-32.77a1.17,1.17,0,0,0-.71.24,1.15,1.15,0,0,0-.42.89v37.35a1.13,1.13,0,0,0,1.13,1.13h0a132.68,132.68,0,0,0,28.73-4,1.14,1.14,0,0,0,.79-1.46c-6.41-18.69-17.36-31.46-29.3-34.17A1.07,1.07,0,0,0,723.21,61.79Zm-9.36,0-.25,0C701.67,64.53,690.72,77.3,684.31,96a1.13,1.13,0,0,0,.79,1.47,132.67,132.67,0,0,0,28.72,4h0a1.1,1.1,0,0,0,.79-.32,1.14,1.14,0,0,0,.35-.81V62.92a1.16,1.16,0,0,0-.43-.89A1.13,1.13,0,0,0,713.85,61.79Zm33.83,5.8a1.16,1.16,0,0,0-.9.44,1.14,1.14,0,0,0,0,1.41,78,78,0,0,1,12.93,24.49,1.11,1.11,0,0,0,.58.66,1.17,1.17,0,0,0,.49.11,1.07,1.07,0,0,0,.39-.07A75.14,75.14,0,0,0,773.36,89a1.12,1.12,0,0,0,.55-.77,1.15,1.15,0,0,0-.24-.93A72.18,72.18,0,0,0,748.15,67.7,1.12,1.12,0,0,0,747.68,67.59Zm-58.29,0a1.2,1.2,0,0,0-.48.11,72.18,72.18,0,0,0-25.52,19.64,1.13,1.13,0,0,0,.31,1.7,75.9,75.9,0,0,0,12.18,5.58,1,1,0,0,0,.39.07,1.24,1.24,0,0,0,.49-.11,1.18,1.18,0,0,0,.58-.66,77.73,77.73,0,0,1,12.92-24.48,1.13,1.13,0,0,0-.87-1.85Z"/></svg>